<?xml version="1.0" encoding="UTF-8" standalone="no"?>
<!-- Created with Inkscape (http://www.inkscape.org/) -->

<svg
   xmlns:dc="http://purl.org/dc/elements/1.1/"
   xmlns:cc="http://creativecommons.org/ns#"
   xmlns:rdf="http://www.w3.org/1999/02/22-rdf-syntax-ns#"
   xmlns:svg="http://www.w3.org/2000/svg"
   xmlns="http://www.w3.org/2000/svg"
   xmlns:sodipodi="http://sodipodi.sourceforge.net/DTD/sodipodi-0.dtd"
   xmlns:inkscape="http://www.inkscape.org/namespaces/inkscape"
   width="10cm"
   height="10cm"
   viewBox="0 0 100 99.999997"
   version="1.1"
   id="svg36"
   inkscape:version="0.92.3 (2405546, 2018-03-11)"
   sodipodi:docname="piotrowski-znak.svg">
  <title
     id="title1138">znakstop</title>
  <defs
     id="defs30" />
  <sodipodi:namedview
     id="base"
     pagecolor="#ffffff"
     bordercolor="#666666"
     borderopacity="1.0"
     inkscape:pageopacity="0.0"
     inkscape:pageshadow="2"
     inkscape:zoom="2.0000001"
     inkscape:cx="210.19553"
     inkscape:cy="154.21811"
     inkscape:document-units="cm"
     inkscape:current-layer="layer1"
     showgrid="false"
     units="cm"
     showguides="true"
     inkscape:guide-bbox="true"
     inkscape:window-width="1853"
     inkscape:window-height="1021"
     inkscape:window-x="67"
     inkscape:window-y="27"
     inkscape:window-maximized="1">
    <sodipodi:guide
       position="49.999999,49.999999"
       orientation="0,1"
       id="guide38"
       inkscape:locked="false"
       inkscape:label=""
       inkscape:color="rgb(0,0,255)" />
    <sodipodi:guide
       position="49.999999,49.999998"
       orientation="1,0"
       id="guide40"
       inkscape:locked="false"
       inkscape:label=""
       inkscape:color="rgb(0,0,255)" />
  </sodipodi:namedview>
  <metadata
     id="metadata33">
    <rdf:RDF>
      <cc:Work
         rdf:about="">
        <dc:format>image/svg+xml</dc:format>
        <dc:type
           rdf:resource="http://purl.org/dc/dcmitype/StillImage" />
        <dc:title>znakstop</dc:title>
      </cc:Work>
    </rdf:RDF>
  </metadata>
  <g
     inkscape:label="Layer 1"
     inkscape:groupmode="layer"
     id="layer1"
     transform="translate(0,-197.00002)">
    <path
       id="path42"
       style="fill:#0000ff;fill-opacity:1;stroke:#ff0000;stroke-width:10;stroke-miterlimit:4;stroke-dasharray:none;stroke-opacity:1"
       d="M 94.570461,253.20199 A 44.999999,44.999999 0 0 0 56.201968,202.42966 44.999999,44.999999 0 0 0 5.4296372,240.79815 44.999999,44.999999 0 0 0 43.79813,291.57048 44.999999,44.999999 0 0 0 94.570461,253.20199 Z m -15.49578,22.15232 -7.3e-5,5.2e-4 c -0.0067,0.0263 -0.08001,0.0858 -0.02032,0.0713 0.002,-5.1e-4 0.007,-0.002 0.005,-0.001 -0.02238,0.007 -0.04446,0.0137 -0.06656,0.021 -0.01331,0.004 -0.01576,0.01 -0.0131,0.004 -0.01452,0.008 -0.01914,0.009 -0.03303,0.0126 3.15e-4,-1.9e-4 5.66e-4,-0.002 2.21e-4,-0.002 -0.002,0.001 -0.0041,0.002 -0.0061,0.003 -6.14e-4,1.5e-4 -4.55e-4,1.9e-4 -0.001,3.9e-4 -0.002,0.001 -0.0041,0.003 -0.0071,0.004 -0.002,0.001 -0.0041,0.002 -0.0071,0.003 -3.32e-4,9e-5 -5.7e-5,-0.001 -3.82e-4,-0.001 -0.0051,0.003 -0.01029,0.007 -0.01497,0.0104 -0.01474,0.009 -0.0304,0.0152 -0.04674,0.0206 -0.0177,0.004 0.002,-8e-4 -0.02411,0.008 -0.0051,0.002 -0.01108,0.003 -0.01682,0.004 0.001,-6.5e-4 0.0051,-0.002 0.0031,-0.002 -0.002,7.7e-4 -0.0051,0.003 -0.0081,0.004 -5.34e-4,1.4e-4 4.85e-4,-9.8e-4 7.37e-4,-0.001 -0.02454,0.017 -0.05154,0.0283 -0.07989,0.0379 -0.01384,0.009 -0.0283,0.0155 -0.0429,0.0233 -0.0071,0.004 -0.01368,0.007 -0.02017,0.0102 0.0037,0.0103 -0.01753,0.0168 -0.03573,0.0243 -0.0041,0.002 -0.0061,0.006 -0.01099,0.007 0.02742,-0.0241 -0.0051,0.004 -0.0061,0.004 -0.002,0.002 0.0041,-0.005 0.0072,-0.007 -0.0021,0.002 -0.0041,0.003 -0.0051,0.004 0,0 -7.3e-5,5.2e-4 -7.3e-5,5.2e-4 -3.63e-4,4.9e-4 -0.001,3.6e-4 -0.002,8.3e-4 -0.0062,0.006 -0.0082,0.008 -0.02447,0.0222 -0.001,6.1e-4 -0.003,7e-4 -0.0051,0.002 l -5.28e-4,-7e-5 -5.91e-4,4.5e-4 c -0.0042,0.006 -0.0052,0.009 -0.01655,0.0175 -0.01093,0.009 -0.02253,0.0167 -0.03423,0.0245 0.02637,-0.003 0.04977,-0.018 0.07684,-0.0164 0.002,1.2e-4 0.004,0.001 0.006,0.001 0.004,-0.001 0.0031,-0.003 0.0081,-0.004 0.003,-3.8e-4 0.03292,-2.6e-4 0.03516,0.006 0.0075,0.0209 0.0069,0.044 0.0096,0.066 -0.03601,0.0235 -0.01172,0.0126 -0.04873,0.0204 -0.002,5.1e-4 0.0071,-0.003 0.007,-6.4e-4 -0.0011,0.003 -0.0051,0.002 -0.0081,0.003 -2.73e-4,1.3e-4 -1.1e-4,7.9e-4 -1.48e-4,0.001 -0.002,0.001 -0.005,0.002 -0.0081,0.003 -7.75e-4,9.6e-4 -0.002,7.4e-4 -0.003,0.002 -0.01178,0.0108 -0.03218,0.0106 -0.04365,0.0211 -0.01768,0.003 -0.02613,0.0166 -0.04005,0.0252 -0.0061,0.004 -0.01318,0.007 -0.01967,0.0103 -0.02322,0.008 -0.0433,0.0229 -0.06566,0.0331 -0.001,6.3e-4 -0.003,9.2e-4 -0.004,0.002 0.01025,-0.002 0.0151,0.004 0.01647,0.0133 0.002,-7.4e-4 0.005,-0.001 0.0071,-0.003 0.0051,-0.003 0.01149,-0.007 0.01706,-0.0102 0.0071,-0.003 0.01366,-0.002 0.01981,-0.004 0.0041,-0.004 0.01028,-0.0109 0.01088,-0.007 3.6e-4,0.002 -4.81e-4,0.003 -1.19e-4,0.005 0.01095,-0.002 0.02077,-0.006 0.03439,-0.007 0.0014,0.0248 0.0027,0.0497 0.0061,0.0744 0.001,-6.4e-4 0.002,-0.001 0.0031,-0.002 0.001,-9.1e-4 -0.0031,0.005 -0.0031,0.003 -4.3e-5,-2.7e-4 2e-4,-7.7e-4 1.48e-4,-0.001 -0.01301,0.008 -0.02483,0.0164 -0.03995,0.021 0.001,-0.001 0.0041,-0.004 0.0031,-0.003 -0.02749,0.019 0.006,-0.002 -0.02385,0.0175 -0.01332,0.008 -0.01076,0.006 -0.02324,0.0129 -0.0051,0.003 -0.01106,0.006 -0.01644,0.009 -0.0081,0.003 -0.02967,0.0103 -0.0371,0.0152 -0.01211,0.008 -0.02327,0.0183 -0.03797,0.0219 -0.0069,-0.002 -3.62e-4,-3.1e-4 -0.01522,0.008 -0.0041,0.002 -0.0071,0.004 -0.01186,0.006 -8.01e-4,4.2e-4 -0.002,2.4e-4 -0.003,6.3e-4 -0.03633,0.0245 0.0113,-0.004 -0.02423,0.0164 -7.32e-4,4.3e-4 -0.004,0.002 -0.0051,0.002 -0.01132,0.009 -0.02276,0.014 -0.03301,0.0236 -0.0061,0.003 -0.01228,0.007 -0.01856,0.01 -0.003,0.001 -0.0061,0.002 -0.0081,0.004 -0.0091,0.004 -0.0189,0.0156 -0.02595,0.0214 -0.0071,0.004 -0.01409,0.007 -0.0209,0.0117 -0.0041,0.003 -0.01027,0.0104 -0.01385,0.0137 -0.0092,0.009 -0.01146,0.01 -0.02176,0.0178 -0.01265,0.01 -0.02677,0.018 -0.03894,0.0285 -0.0031,0.003 -0.0062,0.007 -0.0093,0.0107 -0.0061,0.006 -0.01019,0.007 -0.01385,0.01 -3.76e-4,9.9e-4 -0.0021,0.003 -0.0031,0.004 -0.0041,0.004 -0.0072,0.009 -0.01234,0.0134 -0.01034,0.009 -0.03133,0.0204 -0.03821,0.0312 -0.0041,0.003 -0.01028,0.011 -0.01113,0.009 0.0032,-0.006 0.0171,-0.0154 0.01173,-0.013 -0.004,0.002 -0.0071,0.005 -0.0115,0.008 -8.6e-4,0.001 -0.0021,0.004 -0.0052,0.008 0.002,-8.1e-4 0.0021,-0.002 0.004,-0.002 -0.0051,0.005 -0.03341,0.0197 -0.01019,0.007 -0.001,8.8e-4 -0.0031,0.002 -0.0051,0.003 -9.67e-4,6.6e-4 -0.002,0.002 -0.0031,0.002 l -6.02e-4,4.5e-4 c -7.88e-4,6.9e-4 -0.002,0.002 -0.0021,0.002 -0.0031,0.003 4.06e-4,-2.1e-4 -0.001,9.1e-4 -0.0021,0.002 -0.0051,0.004 -0.0072,0.006 1.2e-4,0.002 -0.0031,0.004 -0.0051,0.006 -0.001,6.3e-4 -0.0031,0.002 -0.0041,0.003 -0.001,6.4e-4 -0.0021,0.004 -0.0031,0.003 -3.46e-4,-5.8e-4 -3.79e-4,-0.002 -7.34e-4,-0.002 -0.0071,0.004 -0.01518,0.007 -0.02287,0.0104 -0.0074,-0.0248 -0.01445,-0.0492 -0.02153,-0.0739 -0.003,0.002 -0.0061,0.004 -0.0091,0.005 -0.002,0.001 0.0041,-0.004 0.0062,-0.006 7.57e-4,-6.9e-4 0.002,-0.002 0.0021,-0.002 -1.23e-4,-2.8e-4 -2.59e-4,-8.3e-4 -3.82e-4,-0.001 -7.74e-4,1.5e-4 -0.003,6.9e-4 -0.002,3e-4 0.0082,-0.006 0.01099,-0.007 0.01385,-0.01 l 6.02e-4,-4.5e-4 c 7.88e-4,-6.9e-4 0.0021,-0.002 0.002,-0.002 7.01e-4,-4.3e-4 0.003,-0.001 0.0041,-0.002 0.0031,-0.002 0.0051,-0.004 0.01335,-0.01 l -0.01027,0.006 c 0.0021,-0.002 0.0051,-0.005 0.0062,-0.007 -0.0091,0.005 -0.01347,0.006 -0.01953,0.009 l -5.92e-4,4.6e-4 c -0.0082,0.006 -0.01415,0.0135 -0.022,0.0194 -0.0061,0.004 -0.01268,0.007 -0.01878,0.011 -0.001,0.001 -0.0011,0.003 -0.0031,0.005 -0.0072,0.009 -0.0093,0.01 -0.01927,0.0182 -0.0092,0.009 -0.02237,0.0143 -0.0324,0.0231 -0.001,9.2e-4 0.0051,-0.002 0.004,-0.001 -0.0041,0.005 -0.0082,0.008 -0.01322,0.0122 -0.0021,0.002 0.0051,-0.005 0.0072,-0.007 -0.0092,0.006 -0.01753,0.0127 -0.02609,0.0188 -0.002,7.8e-4 -0.0071,0.003 -0.0051,0.002 0.01425,-0.006 0.01013,-0.005 -0.0052,0.007 -0.002,0.002 0.0062,-0.007 0.0061,-0.004 -4.27e-4,0.003 -0.0051,0.005 -0.0062,0.008 3.69e-4,8e-5 0.001,-1.2e-4 9.97e-4,1.4e-4 -0.02536,0.0296 -0.0062,0.01 -0.03991,0.0315 -0.0031,0.002 0.0071,-0.004 0.01175,-0.006 -0.002,0.001 -0.0041,0.002 -0.0061,0.003 -0.0051,0.005 -0.0118,0.008 -0.01732,0.0122 -0.0021,0.002 0.01128,-0.007 0.0081,-0.005 -0.0061,0.005 -0.01272,0.008 -0.01854,0.0131 -0.0021,0.002 0.0051,-0.003 0.0081,-0.005 -0.0071,0.004 -0.01222,0.008 -0.01843,0.0126 0.003,-0.002 0.0122,-0.008 0.0091,-0.005 -0.0031,0.002 -0.0061,0.004 -0.01017,0.006 -0.0061,0.004 -0.01212,0.008 -0.01793,0.0126 -0.0031,0.002 -0.0061,0.005 -0.01018,0.007 0.003,-0.002 0.0062,-0.007 0.0091,-0.005 0.003,0.001 -0.0041,0.005 -0.0062,0.007 -0.0031,0.004 -0.0072,0.008 -0.01148,0.0109 -0.01145,0.01 -0.01606,0.0141 -0.02781,0.0238 -0.03317,0.0179 -0.004,0.002 -0.003,0.002 0.003,4.4e-4 -0.0041,0.003 -0.0051,0.006 -1.76e-4,2.5e-4 9.93e-4,2.8e-4 9.43e-4,6.7e-4 -0.0052,0.006 -0.01041,0.012 -0.01507,0.0183 -0.0091,0.005 -0.01705,0.01 -0.02547,0.0142 0.002,-0.001 0.004,-0.001 0.0071,-0.003 0.003,-1.2e-4 -0.0071,0.005 -0.0052,0.007 -0.02036,0.0218 -0.01909,0.0228 -0.01051,0.0121 0.04957,-0.0652 -0.118268,0.0287 -0.07282,-0.0393 0.0011,-0.002 0.02425,-0.033 0.01087,-0.0105 0.01265,-0.0215 0.01559,-0.0232 0.03397,-0.0375 0.002,-0.001 0.0041,-0.002 0.0061,-0.003 9.84e-4,-9.3e-4 0.0021,-0.003 0.0031,-0.003 6.33e-4,2.7e-4 -9.84e-4,9.4e-4 -0.0011,0.002 0.001,-8.8e-4 0.0031,-0.002 0.0041,-0.002 0.0073,-0.012 0.01359,-0.0229 0.02791,-0.0316 -0.001,0.002 -0.0062,0.007 -0.0041,0.005 0.0051,-0.005 0.0083,-0.0102 0.01348,-0.0148 0.0021,-0.002 0.0051,-0.004 0.0072,-0.006 0.01021,-0.008 0.0168,-0.0194 0.02867,-0.0258 -0.0021,0.002 -0.01054,0.009 -0.0072,0.007 0.05743,-0.0436 -0.03127,0.0221 0.02657,-0.0219 0.0021,-0.002 -0.0041,0.005 -0.0072,0.007 0.0061,-0.005 0.01145,-0.01 0.01717,-0.0143 -0.0021,0.003 -0.01076,0.01 -0.0082,0.008 0.0031,-0.002 0.0061,-0.004 0.0082,-0.007 0.05598,-0.0457 -0.03377,0.026 0.02941,-0.0236 -0.0092,0.007 0.002,-2.6e-4 0.0071,-0.004 0.001,-8.8e-4 0.0011,-0.003 0.0021,-0.002 0.002,0.001 -0.02572,0.0359 0.0031,-0.005 -0.001,6.2e-4 -0.002,0.002 -0.0041,0.002 -0.003,0.002 -0.0071,0.003 -0.01101,0.004 -0.018,-0.004 -0.0437,0.003 -0.05361,-0.0121 -0.0058,-0.009 -0.0055,-0.0206 -0.0032,-0.0322 -0.0051,0.004 -0.01023,0.009 -0.01643,0.0128 -2.74e-4,1.7e-4 0.001,-1.2e-4 9.97e-4,1.4e-4 -1.1e-4,7.9e-4 -0.0011,0.002 -0.0011,0.002 0.002,-0.002 0.0031,-0.004 0.0051,-0.005 -0.01402,0.0165 -0.0132,0.0236 -0.03684,0.0324 -0.0071,0.003 -0.01473,0.001 -0.02215,0.002 -0.08167,0.006 0.09104,-0.0949 0.01009,-0.082 -0.01959,0.003 -0.02069,0.003 -0.01991,0.004 0.0021,-0.004 0.0042,-0.007 0.0063,-0.0106 0.0021,-0.003 0.0082,-0.006 0.01336,-0.0101 -0.0091,0.005 -0.01696,0.01 -0.02634,0.013 -3.92e-4,4.8e-4 -0.001,3.8e-4 -0.002,8.2e-4 -0.003,9.3e-4 -0.0041,0.003 -0.0081,0.004 -0.001,3.4e-4 0.002,-5e-4 0.004,-10e-4 7.88e-4,-6.9e-4 0.001,-3.7e-4 0.002,-8.2e-4 0.002,-5.5e-4 0.002,-2.5e-4 0.003,-6.3e-4 -0.001,8.8e-4 -0.003,9.2e-4 -0.0051,0.002 -0.0031,0.003 -0.0061,0.006 -0.0092,0.009 -0.0041,0.003 -0.0072,0.007 -0.01224,0.009 -7.11e-4,4.4e-4 -0.001,6.1e-4 -0.002,7.7e-4 -5.72e-4,4.6e-4 -0.0031,0.003 -0.0031,0.003 -0.0041,0.003 -0.0091,0.004 -0.01385,0.006 -0.03032,0.0122 -0.02718,-0.005 -0.01884,-0.0261 -0.005,0.002 -0.01105,0.006 -0.01991,0.008 -0.07851,0.0232 -0.101574,-0.0589 -0.02239,-0.0793 0.04592,-0.0118 0.01912,-0.004 0.111577,-0.0445 0.01386,-0.006 0.02705,-0.0133 0.04081,-0.0194 0.01037,-0.0143 0.02611,-0.0393 0.0091,-0.005 0.001,-3.8e-4 0.002,-0.001 0.003,-0.002 0.002,-0.002 0.0041,-0.003 0.0051,-0.005 0.0051,-0.003 0.01018,-0.007 0.01546,-0.01 7.02e-4,-4.4e-4 0.002,8.1e-4 0.002,2.8e-4 0.0041,-0.002 0.0081,-0.005 0.0125,-0.008 0.001,-9.2e-4 0.0051,-0.004 0.0041,-0.003 -0.0011,0.004 -0.0093,0.0114 -0.0073,0.01 2.23e-4,-10e-5 3.56e-4,-2.2e-4 6.02e-4,-4.5e-4 0.02629,-0.0227 0.0074,-0.0145 0.03955,-0.0289 3.65e-4,-1.8e-4 -1.83e-4,5.1e-4 -1.47e-4,0.001 0.03089,-0.0149 -0.0373,0.0309 0.01767,-0.0106 0.0021,-0.002 -0.01053,0.009 -0.0072,0.007 0.0061,-0.004 0.01114,-0.009 0.01656,-0.0139 0.0021,-0.002 -0.0041,0.005 -0.0082,0.007 0.0061,-0.005 0.01125,-0.01 0.01657,-0.0144 -0.0021,0.003 -0.01025,0.01 -0.0082,0.007 0.0061,-0.005 0.01155,-0.01 0.01717,-0.0143 0.0021,-0.002 -0.01053,0.009 -0.0072,0.007 0.01121,-0.008 0.02588,-0.0226 0.01021,-0.008 0.0061,-0.004 0.01065,-0.01 0.01645,-0.0134 0.0031,-0.002 -0.01159,0.0115 -0.0082,0.009 0.0061,-0.005 0.01035,-0.01 0.01557,-0.0145 -0.0041,0.004 -0.01561,0.0161 -0.01112,0.0125 0.0061,-0.005 0.02964,-0.0286 0.01644,-0.017 0.0081,-0.006 0.01382,-0.008 0.0193,-0.0114 -0.0326,-0.0161 -0.03652,-0.0588 0.01895,-0.0725 l 7.3e-5,-5.2e-4 c 0.03211,-0.008 0.05892,-0.0314 0.09177,-0.0368 0.005,-8.7e-4 0.01177,0.002 0.01682,-7.7e-4 0.04381,-0.0195 0.08697,-0.0407 0.130152,-0.0617 0.0041,-0.003 0.0081,-0.005 0.012,-0.008 0.002,-0.001 0.0031,-0.003 0.0051,-0.004 8.91e-4,-4.1e-4 0.002,-2.8e-4 0.003,-6.8e-4 8.81e-4,-4.1e-4 0.001,-0.001 0.002,-0.002 -0.0073,0.0123 5.08e-4,-0.001 0.01496,-0.0141 0.0021,-0.002 0.0061,-0.003 0.0081,-0.005 l -7.3e-5,5.3e-4 c 0.0071,-0.004 0.01492,-0.008 0.02251,-0.012 3.95e-4,-2e-4 -5.46e-4,9.8e-4 -7.48e-4,0.001 0.003,-0.001 0.0061,-0.004 0.0091,-0.004 0.001,-9e-4 0.003,-0.001 0.0041,-0.002 2.95e-4,-1.9e-4 2.8e-4,-7.6e-4 6.75e-4,-9.7e-4 l 5.92e-4,-4.6e-4 c 7.31e-4,-4.3e-4 0.002,-0.001 0.002,-0.002 0.002,-8.3e-4 0.003,-0.001 0.0051,-0.002 0.0061,-0.005 0.01178,-0.0107 0.01868,-0.0146 0.0031,-0.002 0.01687,-0.0106 0.0209,-0.0117 -2.95e-4,2.3e-4 -4.49e-4,7.4e-4 -6.75e-4,9.8e-4 0.002,-0.001 0.0061,-0.004 0.0071,-0.005 8.18e-4,-6.9e-4 0.001,-0.001 0.002,-0.002 8.48e-4,-6.9e-4 0.002,-0.002 0.0021,-0.002 2.76e-4,-2.1e-4 0.0021,-0.002 0.0011,-0.002 0.001,-9.2e-4 0.003,-0.002 0.0031,-0.003 0.0061,-0.005 0.0091,-0.004 0.01014,-0.005 0.01109,-0.0113 0.02797,-0.0219 0.02655,-0.037 -0.0046,-0.0542 0.03808,-0.046 0.05988,-0.0141 0.003,-0.001 0.006,-0.002 0.0071,-0.002 l 5.29e-4,7e-5 c 0.001,-6.3e-4 0.0041,-0.003 0.0051,-0.003 0.0041,-0.003 0.0072,-0.006 0.01063,-0.009 0.0031,-0.002 0.0071,-0.003 0.01014,-0.005 0.002,-0.001 -0.0081,0.003 -0.006,0.002 0.01223,-0.0126 0.0301,-0.0194 0.04637,-0.0259 0.0041,-0.005 0.0083,-0.01 0.01423,-0.0126 0.0071,-0.003 0.0504,-0.007 0.0151,-0.004 0.001,-9.1e-4 0.002,-0.002 0.0031,-0.003 -6.02e-4,4.5e-4 9.67e-4,-6.7e-4 0.002,-0.001 0.002,-0.001 0.0031,-0.003 0.0051,-0.004 0.0092,-0.007 0.01798,-0.011 0.02671,-0.0119 3.75e-4,-1.8e-4 6.63e-4,-1.2e-4 0.001,-3.9e-4 l 5.19e-4,7e-5 c 0.0031,-0.003 0.0042,-0.007 0.0082,-0.007 0.02001,-1.5e-4 0.04681,-0.004 0.0588,0.0123 0.0039,0.005 4e-5,0.0114 -3.07e-4,0.0172 0.023,-0.0117 0.04582,-0.0238 0.06938,-0.0337 0.0041,-0.004 0.0092,-0.009 0.0093,-0.0101 0.01426,-0.01 0.02496,-0.0219 0.03893,-0.0322 0.002,-0.002 -0.0041,0.005 -0.0071,0.005 -0.002,2.5e-4 0.0031,-0.004 0.0041,-0.005 0.0041,-0.003 0.0081,-0.006 0.01311,-0.008 0.0073,-0.0123 0.02162,-0.028 0.02929,-0.0345 0.0012,-0.009 -4.05e-4,-5.9e-4 0.01619,-0.015 0.001,-0.001 -0.0052,0.006 -0.0051,0.004 6.33e-4,-0.003 0.0041,-0.004 0.0052,-0.007 5.48e-4,-7.2e-4 -0.0031,0.002 -0.002,0.001 0.0052,-0.006 0.01111,-0.012 0.01706,-0.018 -0.003,9.2e-4 0.0051,-0.003 0.0061,-0.004 0.0031,-0.004 0.0062,-0.009 0.0083,-0.0135 0.01037,-0.0144 0.02463,-0.0246 0.03188,-0.0342 5.99e-4,-7.2e-4 -0.002,7.7e-4 -0.002,0.001 0.03051,-0.0314 0.01566,-0.018 0.0092,-0.01 -0.04248,0.0577 0.07967,-0.01 0.08145,0.0186 2.55e-4,0.004 -0.0023,0.0102 -0.0075,0.0188 -0.0011,0.003 -0.02725,0.0371 -0.01212,0.0124 -0.0042,0.007 -0.01458,0.0228 -0.02385,0.029 -1.45e-4,2e-4 -0.001,0.001 -0.001,0.001 0,0 5.29e-4,7e-5 5.29e-4,7e-5 0.0061,-0.002 0.0119,-0.004 0.01794,-0.005 0.0101,-0.004 0.01848,-0.007 0.02672,-0.0124 0.002,-0.001 0.0041,-0.004 0.0061,-0.005 0.0091,-0.006 0.01511,-0.008 0.02411,-0.0118 0.01215,-0.009 0.02849,-0.0111 0.04319,-0.0107 0.005,1.6e-4 -0.01055,0.002 -0.01534,0.002 -0.003,-3.9e-4 0.007,-0.002 0.0091,-0.004 0.01822,-0.008 0.03626,-0.0136 0.05542,-0.0199 0.01987,-0.006 0.03785,-0.0133 0.05852,-0.0159 0.02027,-0.003 0.02565,0.002 0.02353,0.0111 z m -0.318054,0.0397 c 0.0031,-0.002 -0.0081,0.002 -0.01112,0.005 -0.001,9.1e-4 -0.001,0.001 -0.0021,0.003 0.003,-0.002 0.003,-6.3e-4 0.01361,-0.008 z m -0.0703,0.0737 c -0.002,0.001 -0.005,0.001 -0.0071,0.003 -0.001,9e-4 -0.002,0.001 -0.0031,0.003 0.0031,-0.002 0.0071,-0.004 0.01027,-0.006 z m -0.931023,0.79654 c -0.004,0.001 -0.0071,0.004 -0.01164,0.005 -0.003,9e-4 0.009,2e-4 0.01089,-0.003 2.52e-4,-5e-4 5.03e-4,-0.001 8.2e-4,-0.002 z m -0.129598,0.13275 c -2.86e-4,2.3e-4 -0.0021,0.002 -0.0051,0.003 -0.0021,0.003 -0.0032,0.006 -0.0031,0.005 0.0021,-0.004 0.0051,-0.005 0.0072,-0.008 z m -0.0075,-0.20087 c 0.002,-0.002 -1.54e-4,0.002 -0.0021,0.005 l -5.92e-4,4.6e-4 c -0.003,0.002 0.003,3.5e-4 -0.0041,0.003 -5.25e-4,2e-4 0.0041,-0.006 0.0072,-0.009 z"
       inkscape:connector-curvature="0" />
    <circle
       style="fill:#0000ff;fill-opacity:1;stroke:#ffffff;stroke-width:0.44475138;stroke-miterlimit:4;stroke-dasharray:none;stroke-opacity:1"
       cy="247.00002"
       cx="49.749996"
       id="circle857"
       r="40.027622" />
    <g
       id="g855"
       transform="rotate(-45,50,247)">
      <rect
         y="242.00002"
         x="5"
         height="10"
         width="90"
         id="rect849"
         style="fill:#ff0000;fill-opacity:1;stroke:none;stroke-width:9.59544849;stroke-miterlimit:4;stroke-dasharray:none;stroke-opacity:1" />
      <rect
         transform="rotate(-90)"
         style="fill:#ff0000;fill-opacity:1;stroke:none;stroke-width:9.59544849;stroke-miterlimit:4;stroke-dasharray:none;stroke-opacity:1"
         id="rect851"
         width="90"
         height="10"
         x="-292"
         y="45" />
    </g>
    <path
       style="fill:none;stroke:#ffffff;stroke-width:0.49999999;stroke-linecap:butt;stroke-linejoin:miter;stroke-opacity:1;fill-opacity:1;stroke-miterlimit:4;stroke-dasharray:none"
       d="M 18.080845,271.84393 42.924759,247.00002 18.083367,222.15863"
       id="path861"
       inkscape:connector-curvature="0" />
    <path
       inkscape:connector-curvature="0"
       id="path869"
       d="M 82.015978,271.84393 57.172064,247.00002 82.013456,222.15863"
       style="fill:none;fill-opacity:1;stroke:#ffffff;stroke-width:0.5;stroke-linecap:butt;stroke-linejoin:miter;stroke-miterlimit:4;stroke-dasharray:none;stroke-opacity:1" />
    <path
       style="fill:none;fill-opacity:1;stroke:#ffffff;stroke-width:0.5;stroke-linecap:butt;stroke-linejoin:miter;stroke-miterlimit:4;stroke-dasharray:none;stroke-opacity:1"
       d="m 74.843909,279.06755 -24.84391,-24.84392 -24.84139,24.84139"
       id="path871"
       inkscape:connector-curvature="0" />
    <path
       inkscape:connector-curvature="0"
       id="path873"
       d="m 25.156089,215.02855 24.84391,24.84392 24.84139,-24.8414"
       style="fill:none;fill-opacity:1;stroke:#ffffff;stroke-width:0.5;stroke-linecap:butt;stroke-linejoin:miter;stroke-miterlimit:4;stroke-dasharray:none;stroke-opacity:1" />
    <rect
       style="fill:#ff0000;fill-opacity:1;stroke:#ff0000;stroke-width:0.5;stroke-miterlimit:4;stroke-dasharray:none;stroke-opacity:1"
       id="rect1114"
       width="3.1337352"
       height="1.0757599"
       x="23.011906"
       y="212.1553" />
    <rect
       style="fill:#ff0000;fill-opacity:1;stroke:#ff0000;stroke-width:1.32400262;stroke-miterlimit:4;stroke-dasharray:none;stroke-opacity:1"
       id="rect1116"
       width="0.51126635"
       height="1.048068"
       x="-547.4342"
       y="606.76373"
       transform="matrix(0.99993553,-0.01135497,0.93930924,0.34307165,0,0)" />
    <ellipse
       style="fill:#ff0000;fill-opacity:1;stroke:#ff0000;stroke-width:0.5;stroke-miterlimit:4;stroke-dasharray:none;stroke-opacity:1"
       id="path1118"
       cx="24.881332"
       cy="214.68393"
       rx="0.062850103"
       ry="0.11108389" />
    <rect
       style="fill:#ff0000;fill-opacity:1;stroke:#ff0000;stroke-width:0.5;stroke-miterlimit:4;stroke-dasharray:none;stroke-opacity:1"
       id="rect1122"
       width="0.2747865"
       height="0.020462824"
       x="-102.92162"
       y="190.37675"
       transform="rotate(-35)" />
    <rect
       style="fill:#ff0000;fill-opacity:1;stroke:#ff0000;stroke-width:0.5;stroke-miterlimit:4;stroke-dasharray:none;stroke-opacity:1"
       id="rect1124"
       width="0.72723377"
       height="0.52918416"
       x="-116.76744"
       y="195.14166"
       transform="rotate(-50)" />
    <rect
       style="fill:#ff0000;fill-opacity:1;stroke:#ff0000;stroke-width:0.5;stroke-miterlimit:4;stroke-dasharray:none;stroke-opacity:1"
       id="rect1126"
       width="0.84335935"
       height="0.8764323"
       x="-80.220589"
       y="222.37993"
       transform="rotate(-40)" />
    <rect
       style="fill:#ff0000;fill-opacity:1;stroke:#ff0000;stroke-width:0.5;stroke-miterlimit:4;stroke-dasharray:none;stroke-opacity:1"
       id="rect1128"
       width="1.0631865"
       height="1.4758807"
       x="-156.21617"
       y="237.31808"
       transform="rotate(-50)" />
    <rect
       style="fill:#ff0000;fill-opacity:1;stroke:#ff0000;stroke-width:0.5;stroke-miterlimit:4;stroke-dasharray:none;stroke-opacity:1"
       id="rect1130"
       width="1.1079427"
       height="1.3063802"
       x="-122.59546"
       y="261.62558"
       transform="rotate(-40)" />
    <rect
       style="fill:#ff0000;fill-opacity:1;stroke:#ff0000;stroke-width:0.5;stroke-miterlimit:4;stroke-dasharray:none;stroke-opacity:1"
       id="rect1132"
       width="1.0252604"
       height="1.2236979"
       x="-198.67479"
       y="198.11092"
       transform="rotate(-50)" />
    <rect
       style="fill:#ff0000;fill-opacity:1;stroke:#ff0000;stroke-width:0.5;stroke-miterlimit:4;stroke-dasharray:none;stroke-opacity:1"
       id="rect1134"
       width="0.95911455"
       height="0.77721351"
       x="-162.07368"
       y="219.33289"
       transform="rotate(-40)" />
    <rect
       style="fill:#ff0000;fill-opacity:1;stroke:#ff0000;stroke-width:0.5;stroke-miterlimit:4;stroke-dasharray:none;stroke-opacity:1"
       id="rect1136"
       width="0.78343379"
       height="1.0523738"
       x="-158.80582"
       y="155.364"
       transform="rotate(-50)" />
    <path
       style="fill:#000000;stroke:#000000;stroke-width:0.26458332px;stroke-linecap:butt;stroke-linejoin:miter;stroke-opacity:1;fill-opacity:1"
       d="m 42.333333,246.79533 c -0.01683,0.025 -0.01654,0.0277 -0.01654,0.0496 0,0.003 7.94e-4,0.006 0,0.008 -0.0019,0.006 -0.0039,0.0122 -0.0083,0.0165 -0.01712,0.0171 7.94e-4,-0.0261 -0.01654,0.008 -0.0013,0.002 0,0.005 0,0.008 0,0.003 0,0.006 0,0.008 0,0.006 0.0011,0.0475 0,0.0496 -0.0019,0.003 -0.0055,0.006 -0.0083,0.008 -0.0028,0.003 -0.0048,0.007 -0.0083,0.008 -0.0066,0.003 -0.01818,-0.003 -0.02479,0 -0.007,0.003 -0.0096,0.013 -0.01654,0.0165 -0.0049,0.002 -0.01161,-0.002 -0.01654,0 -0.007,0.004 -0.0096,0.013 -0.01654,0.0165 -0.0049,0.002 -0.01161,-0.002 -0.01654,0 -0.0063,0.003 -0.01654,0.0198 -0.01654,0.0248 0,0.072 0.0024,0.0107 0.01654,0.0248 0.0019,0.002 -0.0019,0.006 0,0.008 0.0019,0.002 0.0058,-0.001 0.0083,0 0.0035,0.002 0.0048,0.007 0.0083,0.008 0.0024,0.001 0.0058,-10e-4 0.0083,0 0.007,0.004 0.0091,0.0141 0.01654,0.0165 0.0052,0.002 0.01103,0 0.01654,0 0.0028,0 0.0058,-0.001 0.0083,0 0.007,0.003 0.0096,0.013 0.01654,0.0165 0.0078,0.004 0.01701,0.004 0.02479,0.008 0.0035,0.002 0.0055,0.006 0.0083,0.008 5.3e-4,5.3e-4 0.03183,0.0343 0.03307,0.0248 0.0058,-0.0444 0,-0.0895 0,-0.13431"
       id="path837"
       inkscape:connector-curvature="0" />
    <path
       style="fill:#fafafa;stroke:#ffffff;stroke-width:0.26;stroke-linecap:butt;stroke-linejoin:miter;stroke-opacity:1;stroke-miterlimit:4;stroke-dasharray:none;fill-opacity:1"
       d="m 94.690249,270.21126 c 0.0265,0.0442 0.03598,0.0504 0.04677,0.0935 0.0019,0.008 0,0.0156 0,0.0234 0,0.008 0,0.0156 0,0.0234 0,0.004 0.0013,0.008 0,0.0117 -0.0028,0.008 -0.0096,0.0149 -0.0117,0.0234 -0.0019,0.008 0,0.0156 0,0.0234 0,0.0195 0.0038,0.0394 0,0.0585 -0.0016,0.009 -0.01,0.0148 -0.01169,0.0234 -0.0038,0.0191 0.0047,0.0396 0,0.0585 -0.0021,0.008 -0.0096,0.0149 -0.0117,0.0234 -0.0019,0.008 0,0.0156 0,0.0234 -0.0039,0.008 -0.0085,0.0153 -0.01169,0.0234 -0.0046,0.0115 -0.0062,0.024 -0.0117,0.0351 -0.0024,0.005 -0.0092,0.007 -0.0117,0.0117 -0.0055,0.011 -0.0071,0.0236 -0.01169,0.0351 -0.0032,0.008 -0.0085,0.0153 -0.01169,0.0234 -0.0095,0.0238 -0.0097,0.0379 -0.02339,0.0585 -0.0031,0.005 -0.0086,0.007 -0.01169,0.0117 -0.0048,0.007 -0.0069,0.0161 -0.0117,0.0234 -0.0031,0.005 -0.0092,0.007 -0.0117,0.0117 -0.0013,0.003 0,0.044 0,0.0468 0,0.004 0.0039,0.0117 0,0.0117 -0.0048,0 0.01249,-0.0608 -0.01169,0.0117 -0.0058,0.0175 0.01169,0.0117 0,0.0351 -0.0049,0.01 -0.01728,0.0142 -0.02339,0.0234 -0.0021,0.003 0.0019,0.008 0,0.0117 -0.0024,0.005 -0.0092,0.007 -0.0117,0.0117 -0.0019,0.003 0.0019,0.008 0,0.0117 -0.01445,0.0289 -0.0117,-0.004 -0.0117,0.0234 0,0.0195 0,0.039 0,0.0585 0,0.004 0,0.008 0,0.0117 0,0.004 0.0021,0.008 0,0.0117 -0.01003,0.0167 -0.02506,0.0301 -0.03508,0.0468 -0.0021,0.003 0,0.008 0,0.0117 0,0.008 0.0019,0.0158 0,0.0234 -0.0021,0.008 -0.0089,0.0151 -0.01169,0.0234 -0.0013,0.004 0.0019,0.008 0,0.0117 -0.0024,0.005 -0.0092,0.007 -0.01169,0.0117 -0.0021,0.004 0,0.0675 0,0.0702 0,0.014 -0.0026,0.0625 0,0.0702 0.0172,0.0516 0.0013,0.0123 0.02339,0.0234 0.0049,0.002 0.0078,0.008 0.0117,0.0117 0.0039,0.004 0.0078,0.008 0.01169,0.0117 0.01339,0.0134 0.0163,0.0138 0.02339,0.0351 0.0013,0.004 -0.0021,0.008 0,0.0117 0.01807,0.0271 0.03581,0.0256 0.04677,0.0585 0.0036,0.0109 -0.0036,0.0477 0,0.0585 0.0019,0.005 0.0092,0.007 0.01169,0.0117 0.0019,0.003 0,0.008 0,0.0117 0.0078,0.008 0.01728,0.0142 0.02339,0.0234 0.0021,0.003 -0.0019,0.008 0,0.0117 0.0016,0.003 0.03197,0.0335 0.03508,0.0351 0.0035,0.002 0.0078,0 0.0117,0 0.0039,0 0.0078,0 0.01169,0 0.02339,0 0.04677,0 0.07016,0 0.0053,0 0.05618,0.002 0.05846,0 0.0092,-0.006 0.01394,-0.0177 0.02339,-0.0234 0.01058,-0.006 0.02355,-0.007 0.03508,-0.0117 0.01966,-0.007 0.03969,-0.014 0.05847,-0.0234 0.02513,-0.0126 0.04433,-0.0357 0.07016,-0.0468 0.01476,-0.006 0.03272,-0.004 0.04677,-0.0117 0.25368,-0.14094 -0.124547,0.0389 0.11693,-0.0819 0.07077,-0.0354 0.151376,-0.0464 0.222168,-0.0819 0.03289,-0.0164 0.06031,-0.0427 0.09354,-0.0585 0.04123,-0.0195 0.08581,-0.031 0.128624,-0.0468 0.03125,-0.0115 0.06463,-0.0185 0.09354,-0.0351 0.02643,-0.0151 0.04622,-0.0397 0.07016,-0.0585 0.03065,-0.0241 0.06211,-0.0471 0.09355,-0.0702 0.02704,-0.0198 0.05704,-0.0359 0.08185,-0.0585 0.01847,-0.0168 0.02746,-0.0427 0.04677,-0.0585 0.02432,-0.0199 0.05705,-0.0275 0.08185,-0.0468 0.01109,-0.009 0.01461,-0.0241 0.02339,-0.0351 0.0069,-0.009 0.01558,-0.0156 0.02339,-0.0234 0.0078,-0.0117 0.01495,-0.0238 0.02339,-0.0351 0.0033,-0.004 0.0092,-0.007 0.0117,-0.0117 0.05647,-0.11293 -0.01506,0.0218 0.0117,-0.0585 0.0019,-0.005 0.0092,-0.007 0.01169,-0.0117 0.0019,-0.004 0,-0.008 0,-0.0117 0,-0.008 -0.0024,-0.016 0,-0.0234 0.0019,-0.005 0.0092,-0.007 0.0117,-0.0117 0.0019,-0.004 -0.0019,-0.008 0,-0.0117 0.05454,-0.10907 0.0029,0.0324 0.02339,-0.0702 0.0016,-0.009 0.0089,-0.0151 0.0117,-0.0234 7.93e-4,-0.003 7.93e-4,-0.045 0,-0.0468 -0.02676,-0.0535 0.0048,0.0496 -0.02339,-0.0351 -0.0013,-0.004 0.0013,-0.008 0,-0.0117 -0.0055,-0.0165 -0.01789,-0.0302 -0.02339,-0.0468 -0.0051,-0.0152 -0.0057,-0.0319 -0.01169,-0.0468 -0.0021,-0.005 -0.0084,-0.007 -0.0117,-0.0117 -0.0084,-0.0113 -0.01558,-0.0234 -0.02339,-0.0351 -0.0117,-0.0117 -0.02474,-0.0222 -0.03508,-0.0351 -0.0054,-0.007 -0.0065,-0.0164 -0.01169,-0.0234 -0.0066,-0.009 -0.01558,-0.0156 -0.02339,-0.0234 -0.01558,-0.0156 -0.03003,-0.0324 -0.04677,-0.0468 -0.01066,-0.009 -0.02429,-0.0144 -0.03508,-0.0234 -0.0127,-0.0106 -0.02238,-0.0245 -0.03508,-0.0351 -0.03359,-0.028 -0.09954,-0.0585 -0.140317,-0.0702 -0.0075,-0.002 -0.01569,10e-4 -0.02339,0 -0.01585,-0.003 -0.03083,-0.01 -0.04677,-0.0117 -0.0232,-0.003 -0.04701,0.003 -0.07016,0 -0.01968,-0.003 -0.03936,-0.006 -0.05846,-0.0117 -0.04516,-0.0129 8e-5,-0.015 -0.05846,-0.0234 -0.01543,-0.002 -0.03118,0 -0.04677,0 -0.02339,0 -0.04677,0 -0.07016,0 -0.01619,0 -0.08145,-0.003 -0.09354,0 -0.05171,0.0129 -0.01815,0.007 -0.05846,0.0234 -0.01146,0.005 -0.02363,0.007 -0.03508,0.0117 -0.01646,0.007 -0.0858,0.0416 -0.09355,0.0468 -0.0092,0.006 -0.01394,0.0177 -0.02339,0.0234 -0.01058,0.006 -0.02545,0.004 -0.03508,0.0117 -0.01098,0.009 -0.01241,0.0263 -0.02339,0.0351 -0.0096,0.008 -0.02363,0.007 -0.03508,0.0117 -0.0081,0.003 -0.0159,0.007 -0.02339,0.0117 -0.009,0.005 -0.04319,0.0313 -0.05846,0.0351 -0.0076,0.002 -0.01558,0 -0.02339,0 -0.0078,0 -0.01558,0 -0.02339,0 -0.03358,0 -0.06232,0.004 -0.09355,-0.0117 -0.0094,-0.005 -0.01402,-0.0187 -0.02339,-0.0234 -0.01103,-0.006 -0.02313,-0.009 -0.03508,-0.0117 -0.0048,-0.001 -0.02196,10e-4 -0.02339,0 -0.01378,-0.0138 -0.02339,-0.0312 -0.03508,-0.0468 z"
       id="path836"
       inkscape:connector-curvature="0" />
    <path
       style="fill:none;stroke:#ebebeb;stroke-width:0.26458332px;stroke-linecap:butt;stroke-linejoin:miter;stroke-opacity:1"
       d="m 94.362843,270.25803 -1.262848,2.17491 1.987817,-0.87698"
       id="path840"
       inkscape:connector-curvature="0" />
    <path
       style="fill:none;stroke:#f9f9f9;stroke-width:0.26458332px;stroke-linecap:butt;stroke-linejoin:miter;stroke-opacity:1"
       d="m 94.362843,270.25803 0.724969,1.29793"
       id="path842"
       inkscape:connector-curvature="0" />
    <path
       style="fill:none;stroke:#000000;stroke-width:0.26458332px;stroke-linecap:butt;stroke-linejoin:miter;stroke-opacity:1"
       d="m 94.339459,271.80151 0.05846,0.0234"
       id="path844"
       inkscape:connector-curvature="0" />
    <path
       style="fill:none;stroke:#ffffff;stroke-width:0.26458332px;stroke-linecap:butt;stroke-linejoin:miter;stroke-opacity:1"
       d="m 94.912417,270.46851 c -0.42095,1.96443 -0.42095,1.96443 -0.42095,1.96443 l -1.134223,-0.36249 z"
       id="path846"
       inkscape:connector-curvature="0" />
    <path
       style="fill:none;stroke:#fefefe;stroke-width:0.26458332px;stroke-linecap:butt;stroke-linejoin:miter;stroke-opacity:1"
       d="m 95.286593,272.94743 -0.502801,0.21048 -1.426548,-1.08746 1.005599,-1.81242 z"
       id="path848"
       inkscape:connector-curvature="0" />
    <path
       style="fill:none;stroke:#f9f9f9;stroke-width:0.26458332px;stroke-linecap:butt;stroke-linejoin:miter;stroke-opacity:1"
       d="m 93.357244,272.07045 2.350299,0.19879 -1.017318,-2.05808 z"
       id="path850"
       inkscape:connector-curvature="0" />
    <path
       style="fill:none;stroke:#000000;stroke-width:0.26458332px;stroke-linecap:butt;stroke-linejoin:miter;stroke-opacity:1"
       d="m 93.556025,271.85998 1.473322,0.42095"
       id="path852"
       inkscape:connector-curvature="0" />
    <path
       style="fill:none;stroke:#ffffff;stroke-width:0.26458332px;stroke-linecap:butt;stroke-linejoin:miter;stroke-opacity:1"
       d="m 94.49142,271.14716 -0.935395,0.71282 1.286235,0.19878 z"
       id="path854"
       inkscape:connector-curvature="0" />
    <path
       style="fill:none;stroke:#fdfdfd;stroke-width:0.26458332px;stroke-linecap:butt;stroke-linejoin:miter;stroke-opacity:1"
       d="m 96.011562,272.53818 -1.216075,-0.22217"
       id="path856"
       inkscape:connector-curvature="0" />
    <path
       style="fill:none;stroke:#ffffff;stroke-width:0.26458332px;stroke-linecap:butt;stroke-linejoin:miter;stroke-opacity:1"
       d="m 93.357244,272.07045 1.438243,0.24556 -0.07016,-1.08745 z"
       id="path858"
       inkscape:connector-curvature="0" />
  </g>
</svg>
